  0
SECTION
  2
BLOCKS
  0
ENDSEC
  0
SECTION
  2
ENTITIES
  0
LINE
  8
0
 10
270.472
 20
-7.60844
 11
272
 21
-6.92819
  0
LINE
  8
0
 10
272
 20
-6.92819
 11
273.353
 21
-5.94514
  0
LINE
  8
0
 10
273.353
 20
-5.94514
 11
274.472
 21
-4.70227
  0
LINE
  8
0
 10
274.472
 20
-4.70227
 11
275.308
 21
-3.25389
  0
LINE
  8
0
 10
275.308
 20
-3.25389
 11
275.825
 21
-1.66328
  0
LINE
  8
0
 10
275.825
 20
-1.66328
 11
276
 21
0
  0
LINE
  8
0
 10
276
 20
0
 11
276
 21
268
  0
LINE
  8
0
 10
276
 20
268
 11
275.825
 21
269.663
  0
LINE
  8
0
 10
275.825
 20
269.663
 11
275.308
 21
271.254
  0
LINE
  8
0
 10
275.308
 20
271.254
 11
274.472
 21
272.702
  0
LINE
  8
0
 10
274.472
 20
272.702
 11
273.353
 21
273.945
  0
LINE
  8
0
 10
273.353
 20
273.945
 11
272
 21
274.928
  0
LINE
  8
0
 10
272
 20
274.928
 11
270.472
 21
275.608
  0
LINE
  8
0
 10
270.472
 20
275.608
 11
268.836
 21
275.956
  0
LINE
  8
0
 10
268.836
 20
275.956
 11
-0.836227
 21
275.956
  0
LINE
  8
0
 10
-0.836227
 20
275.956
 11
-2.47212
 21
275.608
  0
LINE
  8
0
 10
-2.47212
 20
275.608
 11
-4
 21
274.928
  0
LINE
  8
0
 10
-4
 20
274.928
 11
-5.35304
 21
273.945
  0
LINE
  8
0
 10
-5.35304
 20
273.945
 11
-6.47212
 21
272.702
  0
LINE
  8
0
 10
-6.47212
 20
272.702
 11
-7.30835
 21
271.254
  0
LINE
  8
0
 10
-7.30835
 20
271.254
 11
-7.82518
 21
269.663
  0
LINE
  8
0
 10
-7.82518
 20
269.663
 11
-8
 21
268
  0
LINE
  8
0
 10
-8
 20
268
 11
-8
 21
0
  0
LINE
  8
0
 10
-8
 20
0
 11
-7.82518
 21
-1.66328
  0
LINE
  8
0
 10
-7.82518
 20
-1.66328
 11
-7.30835
 21
-3.25389
  0
LINE
  8
0
 10
-7.30835
 20
-3.25389
 11
-6.47212
 21
-4.70227
  0
LINE
  8
0
 10
-6.47212
 20
-4.70227
 11
-5.35304
 21
-5.94514
  0
LINE
  8
0
 10
-5.35304
 20
-5.94514
 11
-4
 21
-6.92819
  0
LINE
  8
0
 10
-4
 20
-6.92819
 11
-2.47212
 21
-7.60844
  0
LINE
  8
0
 10
-2.47212
 20
-7.60844
 11
-0.836227
 21
-7.95616
  0
LINE
  8
0
 10
-0.836227
 20
-7.95616
 11
268.836
 21
-7.95616
  0
LINE
  8
0
 10
268.836
 20
-7.95616
 11
270.472
 21
-7.60844
  0
LINE
  8
0
 10
-0.256088
 20
265.563
 11
-0.75708
 21
265.67
  0
LINE
  8
0
 10
-0.75708
 20
265.67
 11
-1.22499
 21
265.878
  0
LINE
  8
0
 10
-1.22499
 20
265.878
 11
-1.63936
 21
266.179
  0
LINE
  8
0
 10
-1.63936
 20
266.179
 11
-1.98209
 21
266.56
  0
LINE
  8
0
 10
-1.98209
 20
266.56
 11
-2.23817
 21
267.003
  0
LINE
  8
0
 10
-2.23817
 20
267.003
 11
-2.39645
 21
267.491
  0
LINE
  8
0
 10
-2.39645
 20
267.491
 11
-2.45
 21
268
  0
LINE
  8
0
 10
-2.45
 20
268
 11
-2.39645
 21
268.509
  0
LINE
  8
0
 10
-2.39645
 20
268.509
 11
-2.23817
 21
268.996
  0
LINE
  8
0
 10
-2.23817
 20
268.996
 11
-1.98209
 21
269.44
  0
LINE
  8
0
 10
-1.98209
 20
269.44
 11
-1.63936
 21
269.821
  0
LINE
  8
0
 10
-1.63936
 20
269.821
 11
-1.22499
 21
270.122
  0
LINE
  8
0
 10
-1.22499
 20
270.122
 11
-0.75708
 21
270.33
  0
LINE
  8
0
 10
-0.75708
 20
270.33
 11
-0.256088
 21
270.437
  0
LINE
  8
0
 10
-0.256088
 20
270.437
 11
0.256088
 21
270.437
  0
LINE
  8
0
 10
0.256088
 20
270.437
 11
0.75708
 21
270.33
  0
LINE
  8
0
 10
0.75708
 20
270.33
 11
1.22499
 21
270.122
  0
LINE
  8
0
 10
1.22499
 20
270.122
 11
1.63936
 21
269.821
  0
LINE
  8
0
 10
1.63936
 20
269.821
 11
1.98209
 21
269.44
  0
LINE
  8
0
 10
1.98209
 20
269.44
 11
2.23817
 21
268.996
  0
LINE
  8
0
 10
2.23817
 20
268.996
 11
2.39645
 21
268.509
  0
LINE
  8
0
 10
2.39645
 20
268.509
 11
2.45
 21
268
  0
LINE
  8
0
 10
2.45
 20
268
 11
2.39645
 21
267.491
  0
LINE
  8
0
 10
2.39645
 20
267.491
 11
2.23817
 21
267.003
  0
LINE
  8
0
 10
2.23817
 20
267.003
 11
1.98209
 21
266.56
  0
LINE
  8
0
 10
1.98209
 20
266.56
 11
1.63936
 21
266.179
  0
LINE
  8
0
 10
1.63936
 20
266.179
 11
1.22499
 21
265.878
  0
LINE
  8
0
 10
1.22499
 20
265.878
 11
0.75708
 21
265.67
  0
LINE
  8
0
 10
0.75708
 20
265.67
 11
0.256088
 21
265.563
  0
LINE
  8
0
 10
0.256088
 20
265.563
 11
-0.256088
 21
265.563
  0
LINE
  8
0
 10
133.744
 20
265.563
 11
133.243
 21
265.67
  0
LINE
  8
0
 10
133.243
 20
265.67
 11
132.775
 21
265.878
  0
LINE
  8
0
 10
132.775
 20
265.878
 11
132.361
 21
266.179
  0
LINE
  8
0
 10
132.361
 20
266.179
 11
132.018
 21
266.56
  0
LINE
  8
0
 10
132.018
 20
266.56
 11
131.762
 21
267.003
  0
LINE
  8
0
 10
131.762
 20
267.003
 11
131.604
 21
267.491
  0
LINE
  8
0
 10
131.604
 20
267.491
 11
131.55
 21
268
  0
LINE
  8
0
 10
131.55
 20
268
 11
131.604
 21
268.509
  0
LINE
  8
0
 10
131.604
 20
268.509
 11
131.762
 21
268.996
  0
LINE
  8
0
 10
131.762
 20
268.996
 11
132.018
 21
269.44
  0
LINE
  8
0
 10
132.018
 20
269.44
 11
132.361
 21
269.821
  0
LINE
  8
0
 10
132.361
 20
269.821
 11
132.775
 21
270.122
  0
LINE
  8
0
 10
132.775
 20
270.122
 11
133.243
 21
270.33
  0
LINE
  8
0
 10
133.243
 20
270.33
 11
133.744
 21
270.437
  0
LINE
  8
0
 10
133.744
 20
270.437
 11
134.256
 21
270.437
  0
LINE
  8
0
 10
134.256
 20
270.437
 11
134.757
 21
270.33
  0
LINE
  8
0
 10
134.757
 20
270.33
 11
135.225
 21
270.122
  0
LINE
  8
0
 10
135.225
 20
270.122
 11
135.639
 21
269.821
  0
LINE
  8
0
 10
135.639
 20
269.821
 11
135.982
 21
269.44
  0
LINE
  8
0
 10
135.982
 20
269.44
 11
136.238
 21
268.996
  0
LINE
  8
0
 10
136.238
 20
268.996
 11
136.396
 21
268.509
  0
LINE
  8
0
 10
136.396
 20
268.509
 11
136.45
 21
268
  0
LINE
  8
0
 10
136.45
 20
268
 11
136.396
 21
267.491
  0
LINE
  8
0
 10
136.396
 20
267.491
 11
136.238
 21
267.003
  0
LINE
  8
0
 10
136.238
 20
267.003
 11
135.982
 21
266.56
  0
LINE
  8
0
 10
135.982
 20
266.56
 11
135.639
 21
266.179
  0
LINE
  8
0
 10
135.639
 20
266.179
 11
135.225
 21
265.878
  0
LINE
  8
0
 10
135.225
 20
265.878
 11
134.757
 21
265.67
  0
LINE
  8
0
 10
134.757
 20
265.67
 11
134.256
 21
265.563
  0
LINE
  8
0
 10
134.256
 20
265.563
 11
133.744
 21
265.563
  0
LINE
  8
0
 10
267.744
 20
265.563
 11
267.243
 21
265.67
  0
LINE
  8
0
 10
267.243
 20
265.67
 11
266.775
 21
265.878
  0
LINE
  8
0
 10
266.775
 20
265.878
 11
266.361
 21
266.179
  0
LINE
  8
0
 10
266.361
 20
266.179
 11
266.018
 21
266.56
  0
LINE
  8
0
 10
266.018
 20
266.56
 11
265.762
 21
267.003
  0
LINE
  8
0
 10
265.762
 20
267.003
 11
265.604
 21
267.491
  0
LINE
  8
0
 10
265.604
 20
267.491
 11
265.55
 21
268
  0
LINE
  8
0
 10
265.55
 20
268
 11
265.604
 21
268.509
  0
LINE
  8
0
 10
265.604
 20
268.509
 11
265.762
 21
268.996
  0
LINE
  8
0
 10
265.762
 20
268.996
 11
266.018
 21
269.44
  0
LINE
  8
0
 10
266.018
 20
269.44
 11
266.361
 21
269.821
  0
LINE
  8
0
 10
266.361
 20
269.821
 11
266.775
 21
270.122
  0
LINE
  8
0
 10
266.775
 20
270.122
 11
267.243
 21
270.33
  0
LINE
  8
0
 10
267.243
 20
270.33
 11
267.744
 21
270.437
  0
LINE
  8
0
 10
267.744
 20
270.437
 11
268.256
 21
270.437
  0
LINE
  8
0
 10
268.256
 20
270.437
 11
268.757
 21
270.33
  0
LINE
  8
0
 10
268.757
 20
270.33
 11
269.225
 21
270.122
  0
LINE
  8
0
 10
269.225
 20
270.122
 11
269.639
 21
269.821
  0
LINE
  8
0
 10
269.639
 20
269.821
 11
269.982
 21
269.44
  0
LINE
  8
0
 10
269.982
 20
269.44
 11
270.238
 21
268.996
  0
LINE
  8
0
 10
270.238
 20
268.996
 11
270.396
 21
268.509
  0
LINE
  8
0
 10
270.396
 20
268.509
 11
270.45
 21
268
  0
LINE
  8
0
 10
270.45
 20
268
 11
270.396
 21
267.491
  0
LINE
  8
0
 10
270.396
 20
267.491
 11
270.238
 21
267.003
  0
LINE
  8
0
 10
270.238
 20
267.003
 11
269.982
 21
266.56
  0
LINE
  8
0
 10
269.982
 20
266.56
 11
269.639
 21
266.179
  0
LINE
  8
0
 10
269.639
 20
266.179
 11
269.225
 21
265.878
  0
LINE
  8
0
 10
269.225
 20
265.878
 11
268.757
 21
265.67
  0
LINE
  8
0
 10
268.757
 20
265.67
 11
268.256
 21
265.563
  0
LINE
  8
0
 10
268.256
 20
265.563
 11
267.744
 21
265.563
  0
LINE
  8
0
 10
-0.256088
 20
131.563
 11
-0.75708
 21
131.67
  0
LINE
  8
0
 10
-0.75708
 20
131.67
 11
-1.22499
 21
131.878
  0
LINE
  8
0
 10
-1.22499
 20
131.878
 11
-1.63936
 21
132.179
  0
LINE
  8
0
 10
-1.63936
 20
132.179
 11
-1.98209
 21
132.56
  0
LINE
  8
0
 10
-1.98209
 20
132.56
 11
-2.23817
 21
133.003
  0
LINE
  8
0
 10
-2.23817
 20
133.003
 11
-2.39645
 21
133.491
  0
LINE
  8
0
 10
-2.39645
 20
133.491
 11
-2.45
 21
134
  0
LINE
  8
0
 10
-2.45
 20
134
 11
-2.39645
 21
134.509
  0
LINE
  8
0
 10
-2.39645
 20
134.509
 11
-2.23817
 21
134.996
  0
LINE
  8
0
 10
-2.23817
 20
134.996
 11
-1.98209
 21
135.44
  0
LINE
  8
0
 10
-1.98209
 20
135.44
 11
-1.63936
 21
135.821
  0
LINE
  8
0
 10
-1.63936
 20
135.821
 11
-1.22499
 21
136.122
  0
LINE
  8
0
 10
-1.22499
 20
136.122
 11
-0.75708
 21
136.33
  0
LINE
  8
0
 10
-0.75708
 20
136.33
 11
-0.256088
 21
136.437
  0
LINE
  8
0
 10
-0.256088
 20
136.437
 11
0.256088
 21
136.437
  0
LINE
  8
0
 10
0.256088
 20
136.437
 11
0.75708
 21
136.33
  0
LINE
  8
0
 10
0.75708
 20
136.33
 11
1.22499
 21
136.122
  0
LINE
  8
0
 10
1.22499
 20
136.122
 11
1.63936
 21
135.821
  0
LINE
  8
0
 10
1.63936
 20
135.821
 11
1.98209
 21
135.44
  0
LINE
  8
0
 10
1.98209
 20
135.44
 11
2.23817
 21
134.996
  0
LINE
  8
0
 10
2.23817
 20
134.996
 11
2.39645
 21
134.509
  0
LINE
  8
0
 10
2.39645
 20
134.509
 11
2.45
 21
134
  0
LINE
  8
0
 10
2.45
 20
134
 11
2.39645
 21
133.491
  0
LINE
  8
0
 10
2.39645
 20
133.491
 11
2.23817
 21
133.003
  0
LINE
  8
0
 10
2.23817
 20
133.003
 11
1.98209
 21
132.56
  0
LINE
  8
0
 10
1.98209
 20
132.56
 11
1.63936
 21
132.179
  0
LINE
  8
0
 10
1.63936
 20
132.179
 11
1.22499
 21
131.878
  0
LINE
  8
0
 10
1.22499
 20
131.878
 11
0.75708
 21
131.67
  0
LINE
  8
0
 10
0.75708
 20
131.67
 11
0.256088
 21
131.563
  0
LINE
  8
0
 10
0.256088
 20
131.563
 11
-0.256088
 21
131.563
  0
LINE
  8
0
 10
133.744
 20
131.563
 11
133.243
 21
131.67
  0
LINE
  8
0
 10
133.243
 20
131.67
 11
132.775
 21
131.878
  0
LINE
  8
0
 10
132.775
 20
131.878
 11
132.361
 21
132.179
  0
LINE
  8
0
 10
132.361
 20
132.179
 11
132.018
 21
132.56
  0
LINE
  8
0
 10
132.018
 20
132.56
 11
131.762
 21
133.003
  0
LINE
  8
0
 10
131.762
 20
133.003
 11
131.604
 21
133.491
  0
LINE
  8
0
 10
131.604
 20
133.491
 11
131.55
 21
134
  0
LINE
  8
0
 10
131.55
 20
134
 11
131.604
 21
134.509
  0
LINE
  8
0
 10
131.604
 20
134.509
 11
131.762
 21
134.996
  0
LINE
  8
0
 10
131.762
 20
134.996
 11
132.018
 21
135.44
  0
LINE
  8
0
 10
132.018
 20
135.44
 11
132.361
 21
135.821
  0
LINE
  8
0
 10
132.361
 20
135.821
 11
132.775
 21
136.122
  0
LINE
  8
0
 10
132.775
 20
136.122
 11
133.243
 21
136.33
  0
LINE
  8
0
 10
133.243
 20
136.33
 11
133.744
 21
136.437
  0
LINE
  8
0
 10
133.744
 20
136.437
 11
134.256
 21
136.437
  0
LINE
  8
0
 10
134.256
 20
136.437
 11
134.757
 21
136.33
  0
LINE
  8
0
 10
134.757
 20
136.33
 11
135.225
 21
136.122
  0
LINE
  8
0
 10
135.225
 20
136.122
 11
135.639
 21
135.821
  0
LINE
  8
0
 10
135.639
 20
135.821
 11
135.982
 21
135.44
  0
LINE
  8
0
 10
135.982
 20
135.44
 11
136.238
 21
134.996
  0
LINE
  8
0
 10
136.238
 20
134.996
 11
136.396
 21
134.509
  0
LINE
  8
0
 10
136.396
 20
134.509
 11
136.45
 21
134
  0
LINE
  8
0
 10
136.45
 20
134
 11
136.396
 21
133.491
  0
LINE
  8
0
 10
136.396
 20
133.491
 11
136.238
 21
133.003
  0
LINE
  8
0
 10
136.238
 20
133.003
 11
135.982
 21
132.56
  0
LINE
  8
0
 10
135.982
 20
132.56
 11
135.639
 21
132.179
  0
LINE
  8
0
 10
135.639
 20
132.179
 11
135.225
 21
131.878
  0
LINE
  8
0
 10
135.225
 20
131.878
 11
134.757
 21
131.67
  0
LINE
  8
0
 10
134.757
 20
131.67
 11
134.256
 21
131.563
  0
LINE
  8
0
 10
134.256
 20
131.563
 11
133.744
 21
131.563
  0
LINE
  8
0
 10
267.744
 20
131.563
 11
267.243
 21
131.67
  0
LINE
  8
0
 10
267.243
 20
131.67
 11
266.775
 21
131.878
  0
LINE
  8
0
 10
266.775
 20
131.878
 11
266.361
 21
132.179
  0
LINE
  8
0
 10
266.361
 20
132.179
 11
266.018
 21
132.56
  0
LINE
  8
0
 10
266.018
 20
132.56
 11
265.762
 21
133.003
  0
LINE
  8
0
 10
265.762
 20
133.003
 11
265.604
 21
133.491
  0
LINE
  8
0
 10
265.604
 20
133.491
 11
265.55
 21
134
  0
LINE
  8
0
 10
265.55
 20
134
 11
265.604
 21
134.509
  0
LINE
  8
0
 10
265.604
 20
134.509
 11
265.762
 21
134.996
  0
LINE
  8
0
 10
265.762
 20
134.996
 11
266.018
 21
135.44
  0
LINE
  8
0
 10
266.018
 20
135.44
 11
266.361
 21
135.821
  0
LINE
  8
0
 10
266.361
 20
135.821
 11
266.775
 21
136.122
  0
LINE
  8
0
 10
266.775
 20
136.122
 11
267.243
 21
136.33
  0
LINE
  8
0
 10
267.243
 20
136.33
 11
267.744
 21
136.437
  0
LINE
  8
0
 10
267.744
 20
136.437
 11
268.256
 21
136.437
  0
LINE
  8
0
 10
268.256
 20
136.437
 11
268.757
 21
136.33
  0
LINE
  8
0
 10
268.757
 20
136.33
 11
269.225
 21
136.122
  0
LINE
  8
0
 10
269.225
 20
136.122
 11
269.639
 21
135.821
  0
LINE
  8
0
 10
269.639
 20
135.821
 11
269.982
 21
135.44
  0
LINE
  8
0
 10
269.982
 20
135.44
 11
270.238
 21
134.996
  0
LINE
  8
0
 10
270.238
 20
134.996
 11
270.396
 21
134.509
  0
LINE
  8
0
 10
270.396
 20
134.509
 11
270.45
 21
134
  0
LINE
  8
0
 10
270.45
 20
134
 11
270.396
 21
133.491
  0
LINE
  8
0
 10
270.396
 20
133.491
 11
270.238
 21
133.003
  0
LINE
  8
0
 10
270.238
 20
133.003
 11
269.982
 21
132.56
  0
LINE
  8
0
 10
269.982
 20
132.56
 11
269.639
 21
132.179
  0
LINE
  8
0
 10
269.639
 20
132.179
 11
269.225
 21
131.878
  0
LINE
  8
0
 10
269.225
 20
131.878
 11
268.757
 21
131.67
  0
LINE
  8
0
 10
268.757
 20
131.67
 11
268.256
 21
131.563
  0
LINE
  8
0
 10
268.256
 20
131.563
 11
267.744
 21
131.563
  0
LINE
  8
0
 10
-0.256088
 20
-2.43657
 11
-0.75708
 21
-2.33008
  0
LINE
  8
0
 10
-0.75708
 20
-2.33008
 11
-1.22499
 21
-2.12175
  0
LINE
  8
0
 10
-1.22499
 20
-2.12175
 11
-1.63936
 21
-1.82069
  0
LINE
  8
0
 10
-1.63936
 20
-1.82069
 11
-1.98209
 21
-1.44006
  0
LINE
  8
0
 10
-1.98209
 20
-1.44006
 11
-2.23817
 21
-0.99649
  0
LINE
  8
0
 10
-2.23817
 20
-0.99649
 11
-2.39645
 21
-0.509369
  0
LINE
  8
0
 10
-2.39645
 20
-0.509369
 11
-2.45
 21
0
  0
LINE
  8
0
 10
-2.45
 20
0
 11
-2.39645
 21
0.509369
  0
LINE
  8
0
 10
-2.39645
 20
0.509369
 11
-2.23817
 21
0.99649
  0
LINE
  8
0
 10
-2.23817
 20
0.99649
 11
-1.98209
 21
1.44006
  0
LINE
  8
0
 10
-1.98209
 20
1.44006
 11
-1.63936
 21
1.82069
  0
LINE
  8
0
 10
-1.63936
 20
1.82069
 11
-1.22499
 21
2.12175
  0
LINE
  8
0
 10
-1.22499
 20
2.12175
 11
-0.75708
 21
2.33008
  0
LINE
  8
0
 10
-0.75708
 20
2.33008
 11
-0.256088
 21
2.43657
  0
LINE
  8
0
 10
-0.256088
 20
2.43657
 11
0.256088
 21
2.43657
  0
LINE
  8
0
 10
0.256088
 20
2.43657
 11
0.75708
 21
2.33008
  0
LINE
  8
0
 10
0.75708
 20
2.33008
 11
1.22499
 21
2.12175
  0
LINE
  8
0
 10
1.22499
 20
2.12175
 11
1.63936
 21
1.82069
  0
LINE
  8
0
 10
1.63936
 20
1.82069
 11
1.98209
 21
1.44006
  0
LINE
  8
0
 10
1.98209
 20
1.44006
 11
2.23817
 21
0.99649
  0
LINE
  8
0
 10
2.23817
 20
0.99649
 11
2.39645
 21
0.509369
  0
LINE
  8
0
 10
2.39645
 20
0.509369
 11
2.45
 21
0
  0
LINE
  8
0
 10
2.45
 20
0
 11
2.39645
 21
-0.509369
  0
LINE
  8
0
 10
2.39645
 20
-0.509369
 11
2.23817
 21
-0.99649
  0
LINE
  8
0
 10
2.23817
 20
-0.99649
 11
1.98209
 21
-1.44006
  0
LINE
  8
0
 10
1.98209
 20
-1.44006
 11
1.63936
 21
-1.82069
  0
LINE
  8
0
 10
1.63936
 20
-1.82069
 11
1.22499
 21
-2.12175
  0
LINE
  8
0
 10
1.22499
 20
-2.12175
 11
0.75708
 21
-2.33008
  0
LINE
  8
0
 10
0.75708
 20
-2.33008
 11
0.256088
 21
-2.43657
  0
LINE
  8
0
 10
0.256088
 20
-2.43657
 11
-0.256088
 21
-2.43657
  0
LINE
  8
0
 10
133.744
 20
-2.43657
 11
133.243
 21
-2.33008
  0
LINE
  8
0
 10
133.243
 20
-2.33008
 11
132.775
 21
-2.12175
  0
LINE
  8
0
 10
132.775
 20
-2.12175
 11
132.361
 21
-1.82069
  0
LINE
  8
0
 10
132.361
 20
-1.82069
 11
132.018
 21
-1.44006
  0
LINE
  8
0
 10
132.018
 20
-1.44006
 11
131.762
 21
-0.99649
  0
LINE
  8
0
 10
131.762
 20
-0.99649
 11
131.604
 21
-0.509369
  0
LINE
  8
0
 10
131.604
 20
-0.509369
 11
131.55
 21
0
  0
LINE
  8
0
 10
131.55
 20
0
 11
131.604
 21
0.509369
  0
LINE
  8
0
 10
131.604
 20
0.509369
 11
131.762
 21
0.99649
  0
LINE
  8
0
 10
131.762
 20
0.99649
 11
132.018
 21
1.44006
  0
LINE
  8
0
 10
132.018
 20
1.44006
 11
132.361
 21
1.82069
  0
LINE
  8
0
 10
132.361
 20
1.82069
 11
132.775
 21
2.12175
  0
LINE
  8
0
 10
132.775
 20
2.12175
 11
133.243
 21
2.33008
  0
LINE
  8
0
 10
133.243
 20
2.33008
 11
133.744
 21
2.43657
  0
LINE
  8
0
 10
133.744
 20
2.43657
 11
134.256
 21
2.43657
  0
LINE
  8
0
 10
134.256
 20
2.43657
 11
134.757
 21
2.33008
  0
LINE
  8
0
 10
134.757
 20
2.33008
 11
135.225
 21
2.12175
  0
LINE
  8
0
 10
135.225
 20
2.12175
 11
135.639
 21
1.82069
  0
LINE
  8
0
 10
135.639
 20
1.82069
 11
135.982
 21
1.44006
  0
LINE
  8
0
 10
135.982
 20
1.44006
 11
136.238
 21
0.99649
  0
LINE
  8
0
 10
136.238
 20
0.99649
 11
136.396
 21
0.509369
  0
LINE
  8
0
 10
136.396
 20
0.509369
 11
136.45
 21
0
  0
LINE
  8
0
 10
136.45
 20
0
 11
136.396
 21
-0.509369
  0
LINE
  8
0
 10
136.396
 20
-0.509369
 11
136.238
 21
-0.99649
  0
LINE
  8
0
 10
136.238
 20
-0.99649
 11
135.982
 21
-1.44006
  0
LINE
  8
0
 10
135.982
 20
-1.44006
 11
135.639
 21
-1.82069
  0
LINE
  8
0
 10
135.639
 20
-1.82069
 11
135.225
 21
-2.12175
  0
LINE
  8
0
 10
135.225
 20
-2.12175
 11
134.757
 21
-2.33008
  0
LINE
  8
0
 10
134.757
 20
-2.33008
 11
134.256
 21
-2.43657
  0
LINE
  8
0
 10
134.256
 20
-2.43657
 11
133.744
 21
-2.43657
  0
LINE
  8
0
 10
267.744
 20
-2.43657
 11
267.243
 21
-2.33008
  0
LINE
  8
0
 10
267.243
 20
-2.33008
 11
266.775
 21
-2.12175
  0
LINE
  8
0
 10
266.775
 20
-2.12175
 11
266.361
 21
-1.82069
  0
LINE
  8
0
 10
266.361
 20
-1.82069
 11
266.018
 21
-1.44006
  0
LINE
  8
0
 10
266.018
 20
-1.44006
 11
265.762
 21
-0.99649
  0
LINE
  8
0
 10
265.762
 20
-0.99649
 11
265.604
 21
-0.509369
  0
LINE
  8
0
 10
265.604
 20
-0.509369
 11
265.55
 21
0
  0
LINE
  8
0
 10
265.55
 20
0
 11
265.604
 21
0.509369
  0
LINE
  8
0
 10
265.604
 20
0.509369
 11
265.762
 21
0.99649
  0
LINE
  8
0
 10
265.762
 20
0.99649
 11
266.018
 21
1.44006
  0
LINE
  8
0
 10
266.018
 20
1.44006
 11
266.361
 21
1.82069
  0
LINE
  8
0
 10
266.361
 20
1.82069
 11
266.775
 21
2.12175
  0
LINE
  8
0
 10
266.775
 20
2.12175
 11
267.243
 21
2.33008
  0
LINE
  8
0
 10
267.243
 20
2.33008
 11
267.744
 21
2.43657
  0
LINE
  8
0
 10
267.744
 20
2.43657
 11
268.256
 21
2.43657
  0
LINE
  8
0
 10
268.256
 20
2.43657
 11
268.757
 21
2.33008
  0
LINE
  8
0
 10
268.757
 20
2.33008
 11
269.225
 21
2.12175
  0
LINE
  8
0
 10
269.225
 20
2.12175
 11
269.639
 21
1.82069
  0
LINE
  8
0
 10
269.639
 20
1.82069
 11
269.982
 21
1.44006
  0
LINE
  8
0
 10
269.982
 20
1.44006
 11
270.238
 21
0.99649
  0
LINE
  8
0
 10
270.238
 20
0.99649
 11
270.396
 21
0.509369
  0
LINE
  8
0
 10
270.396
 20
0.509369
 11
270.45
 21
0
  0
LINE
  8
0
 10
270.45
 20
0
 11
270.396
 21
-0.509369
  0
LINE
  8
0
 10
270.396
 20
-0.509369
 11
270.238
 21
-0.99649
  0
LINE
  8
0
 10
270.238
 20
-0.99649
 11
269.982
 21
-1.44006
  0
LINE
  8
0
 10
269.982
 20
-1.44006
 11
269.639
 21
-1.82069
  0
LINE
  8
0
 10
269.639
 20
-1.82069
 11
269.225
 21
-2.12175
  0
LINE
  8
0
 10
269.225
 20
-2.12175
 11
268.757
 21
-2.33008
  0
LINE
  8
0
 10
268.757
 20
-2.33008
 11
268.256
 21
-2.43657
  0
LINE
  8
0
 10
268.256
 20
-2.43657
 11
267.744
 21
-2.43657
  0
ENDSEC
  0
SECTION
  2
OBJECTS
  0
DICTIONARY
  0
ENDSEC
  0
EOF
