  0
SECTION
  2
BLOCKS
  0
ENDSEC
  0
SECTION
  2
ENTITIES
  0
LINE
  8
0
 10
270.472
 20
-7.60844
 11
272
 21
-6.92819
  0
LINE
  8
0
 10
272
 20
-6.92819
 11
273.353
 21
-5.94514
  0
LINE
  8
0
 10
273.353
 20
-5.94514
 11
274.472
 21
-4.70227
  0
LINE
  8
0
 10
274.472
 20
-4.70227
 11
275.308
 21
-3.25389
  0
LINE
  8
0
 10
275.308
 20
-3.25389
 11
275.825
 21
-1.66328
  0
LINE
  8
0
 10
275.825
 20
-1.66328
 11
276
 21
0
  0
LINE
  8
0
 10
276
 20
0
 11
276
 21
268
  0
LINE
  8
0
 10
276
 20
268
 11
275.825
 21
269.663
  0
LINE
  8
0
 10
275.825
 20
269.663
 11
275.308
 21
271.254
  0
LINE
  8
0
 10
275.308
 20
271.254
 11
274.472
 21
272.702
  0
LINE
  8
0
 10
274.472
 20
272.702
 11
273.353
 21
273.945
  0
LINE
  8
0
 10
273.353
 20
273.945
 11
272
 21
274.928
  0
LINE
  8
0
 10
272
 20
274.928
 11
270.472
 21
275.608
  0
LINE
  8
0
 10
270.472
 20
275.608
 11
268.836
 21
275.956
  0
LINE
  8
0
 10
268.836
 20
275.956
 11
-0.836227
 21
275.956
  0
LINE
  8
0
 10
-0.836227
 20
275.956
 11
-2.47212
 21
275.608
  0
LINE
  8
0
 10
-2.47212
 20
275.608
 11
-4
 21
274.928
  0
LINE
  8
0
 10
-4
 20
274.928
 11
-5.35304
 21
273.945
  0
LINE
  8
0
 10
-5.35304
 20
273.945
 11
-6.47212
 21
272.702
  0
LINE
  8
0
 10
-6.47212
 20
272.702
 11
-7.30835
 21
271.254
  0
LINE
  8
0
 10
-7.30835
 20
271.254
 11
-7.82518
 21
269.663
  0
LINE
  8
0
 10
-7.82518
 20
269.663
 11
-8
 21
268
  0
LINE
  8
0
 10
-8
 20
268
 11
-8
 21
0
  0
LINE
  8
0
 10
-8
 20
0
 11
-7.82518
 21
-1.66328
  0
LINE
  8
0
 10
-7.82518
 20
-1.66328
 11
-7.30835
 21
-3.25389
  0
LINE
  8
0
 10
-7.30835
 20
-3.25389
 11
-6.47212
 21
-4.70227
  0
LINE
  8
0
 10
-6.47212
 20
-4.70227
 11
-5.35304
 21
-5.94514
  0
LINE
  8
0
 10
-5.35304
 20
-5.94514
 11
-4
 21
-6.92819
  0
LINE
  8
0
 10
-4
 20
-6.92819
 11
-2.47212
 21
-7.60844
  0
LINE
  8
0
 10
-2.47212
 20
-7.60844
 11
-0.836227
 21
-7.95616
  0
LINE
  8
0
 10
-0.836227
 20
-7.95616
 11
268.836
 21
-7.95616
  0
LINE
  8
0
 10
268.836
 20
-7.95616
 11
270.472
 21
-7.60844
  0
LINE
  8
0
 10
-0.547867
 20
262.787
 11
-1.61969
 21
263.015
  0
LINE
  8
0
 10
-1.61969
 20
263.015
 11
-2.62071
 21
263.461
  0
LINE
  8
0
 10
-2.62071
 20
263.461
 11
-3.5072
 21
264.105
  0
LINE
  8
0
 10
-3.5072
 20
264.105
 11
-4.24042
 21
264.919
  0
LINE
  8
0
 10
-4.24042
 20
264.919
 11
-4.7883
 21
265.868
  0
LINE
  8
0
 10
-4.7883
 20
265.868
 11
-5.12691
 21
266.91
  0
LINE
  8
0
 10
-5.12691
 20
266.91
 11
-5.24144
 21
268
  0
LINE
  8
0
 10
-5.24144
 20
268
 11
-5.12691
 21
269.09
  0
LINE
  8
0
 10
-5.12691
 20
269.09
 11
-4.7883
 21
270.132
  0
LINE
  8
0
 10
-4.7883
 20
270.132
 11
-4.24042
 21
271.081
  0
LINE
  8
0
 10
-4.24042
 20
271.081
 11
-3.5072
 21
271.895
  0
LINE
  8
0
 10
-3.5072
 20
271.895
 11
-2.62071
 21
272.539
  0
LINE
  8
0
 10
-2.62071
 20
272.539
 11
-1.61969
 21
272.985
  0
LINE
  8
0
 10
-1.61969
 20
272.985
 11
-0.547867
 21
273.213
  0
LINE
  8
0
 10
-0.547867
 20
273.213
 11
0.547867
 21
273.213
  0
LINE
  8
0
 10
0.547867
 20
273.213
 11
1.61969
 21
272.985
  0
LINE
  8
0
 10
1.61969
 20
272.985
 11
2.62071
 21
272.539
  0
LINE
  8
0
 10
2.62071
 20
272.539
 11
3.5072
 21
271.895
  0
LINE
  8
0
 10
3.5072
 20
271.895
 11
4.24042
 21
271.081
  0
LINE
  8
0
 10
4.24042
 20
271.081
 11
4.7883
 21
270.132
  0
LINE
  8
0
 10
4.7883
 20
270.132
 11
5.12691
 21
269.09
  0
LINE
  8
0
 10
5.12691
 20
269.09
 11
5.24144
 21
268
  0
LINE
  8
0
 10
5.24144
 20
268
 11
5.12691
 21
266.91
  0
LINE
  8
0
 10
5.12691
 20
266.91
 11
4.7883
 21
265.868
  0
LINE
  8
0
 10
4.7883
 20
265.868
 11
4.24042
 21
264.919
  0
LINE
  8
0
 10
4.24042
 20
264.919
 11
3.5072
 21
264.105
  0
LINE
  8
0
 10
3.5072
 20
264.105
 11
2.62071
 21
263.461
  0
LINE
  8
0
 10
2.62071
 20
263.461
 11
1.61969
 21
263.015
  0
LINE
  8
0
 10
1.61969
 20
263.015
 11
0.547867
 21
262.787
  0
LINE
  8
0
 10
0.547867
 20
262.787
 11
-0.547867
 21
262.787
  0
LINE
  8
0
 10
133.452
 20
262.787
 11
132.38
 21
263.015
  0
LINE
  8
0
 10
132.38
 20
263.015
 11
131.379
 21
263.461
  0
LINE
  8
0
 10
131.379
 20
263.461
 11
130.493
 21
264.105
  0
LINE
  8
0
 10
130.493
 20
264.105
 11
129.76
 21
264.919
  0
LINE
  8
0
 10
129.76
 20
264.919
 11
129.212
 21
265.868
  0
LINE
  8
0
 10
129.212
 20
265.868
 11
128.873
 21
266.91
  0
LINE
  8
0
 10
128.873
 20
266.91
 11
128.759
 21
268
  0
LINE
  8
0
 10
128.759
 20
268
 11
128.873
 21
269.09
  0
LINE
  8
0
 10
128.873
 20
269.09
 11
129.212
 21
270.132
  0
LINE
  8
0
 10
129.212
 20
270.132
 11
129.76
 21
271.081
  0
LINE
  8
0
 10
129.76
 20
271.081
 11
130.493
 21
271.895
  0
LINE
  8
0
 10
130.493
 20
271.895
 11
131.379
 21
272.539
  0
LINE
  8
0
 10
131.379
 20
272.539
 11
132.38
 21
272.985
  0
LINE
  8
0
 10
132.38
 20
272.985
 11
133.452
 21
273.213
  0
LINE
  8
0
 10
133.452
 20
273.213
 11
134.548
 21
273.213
  0
LINE
  8
0
 10
134.548
 20
273.213
 11
135.62
 21
272.985
  0
LINE
  8
0
 10
135.62
 20
272.985
 11
136.621
 21
272.539
  0
LINE
  8
0
 10
136.621
 20
272.539
 11
137.507
 21
271.895
  0
LINE
  8
0
 10
137.507
 20
271.895
 11
138.24
 21
271.081
  0
LINE
  8
0
 10
138.24
 20
271.081
 11
138.788
 21
270.132
  0
LINE
  8
0
 10
138.788
 20
270.132
 11
139.127
 21
269.09
  0
LINE
  8
0
 10
139.127
 20
269.09
 11
139.241
 21
268
  0
LINE
  8
0
 10
139.241
 20
268
 11
139.127
 21
266.91
  0
LINE
  8
0
 10
139.127
 20
266.91
 11
138.788
 21
265.868
  0
LINE
  8
0
 10
138.788
 20
265.868
 11
138.24
 21
264.919
  0
LINE
  8
0
 10
138.24
 20
264.919
 11
137.507
 21
264.105
  0
LINE
  8
0
 10
137.507
 20
264.105
 11
136.621
 21
263.461
  0
LINE
  8
0
 10
136.621
 20
263.461
 11
135.62
 21
263.015
  0
LINE
  8
0
 10
135.62
 20
263.015
 11
134.548
 21
262.787
  0
LINE
  8
0
 10
134.548
 20
262.787
 11
133.452
 21
262.787
  0
LINE
  8
0
 10
267.452
 20
262.787
 11
266.38
 21
263.015
  0
LINE
  8
0
 10
266.38
 20
263.015
 11
265.379
 21
263.461
  0
LINE
  8
0
 10
265.379
 20
263.461
 11
264.493
 21
264.105
  0
LINE
  8
0
 10
264.493
 20
264.105
 11
263.76
 21
264.919
  0
LINE
  8
0
 10
263.76
 20
264.919
 11
263.212
 21
265.868
  0
LINE
  8
0
 10
263.212
 20
265.868
 11
262.873
 21
266.91
  0
LINE
  8
0
 10
262.873
 20
266.91
 11
262.759
 21
268
  0
LINE
  8
0
 10
262.759
 20
268
 11
262.873
 21
269.09
  0
LINE
  8
0
 10
262.873
 20
269.09
 11
263.212
 21
270.132
  0
LINE
  8
0
 10
263.212
 20
270.132
 11
263.76
 21
271.081
  0
LINE
  8
0
 10
263.76
 20
271.081
 11
264.493
 21
271.895
  0
LINE
  8
0
 10
264.493
 20
271.895
 11
265.379
 21
272.539
  0
LINE
  8
0
 10
265.379
 20
272.539
 11
266.38
 21
272.985
  0
LINE
  8
0
 10
266.38
 20
272.985
 11
267.452
 21
273.213
  0
LINE
  8
0
 10
267.452
 20
273.213
 11
268.548
 21
273.213
  0
LINE
  8
0
 10
268.548
 20
273.213
 11
269.62
 21
272.985
  0
LINE
  8
0
 10
269.62
 20
272.985
 11
270.621
 21
272.539
  0
LINE
  8
0
 10
270.621
 20
272.539
 11
271.507
 21
271.895
  0
LINE
  8
0
 10
271.507
 20
271.895
 11
272.24
 21
271.081
  0
LINE
  8
0
 10
272.24
 20
271.081
 11
272.788
 21
270.132
  0
LINE
  8
0
 10
272.788
 20
270.132
 11
273.127
 21
269.09
  0
LINE
  8
0
 10
273.127
 20
269.09
 11
273.241
 21
268
  0
LINE
  8
0
 10
273.241
 20
268
 11
273.127
 21
266.91
  0
LINE
  8
0
 10
273.127
 20
266.91
 11
272.788
 21
265.868
  0
LINE
  8
0
 10
272.788
 20
265.868
 11
272.24
 21
264.919
  0
LINE
  8
0
 10
272.24
 20
264.919
 11
271.507
 21
264.105
  0
LINE
  8
0
 10
271.507
 20
264.105
 11
270.621
 21
263.461
  0
LINE
  8
0
 10
270.621
 20
263.461
 11
269.62
 21
263.015
  0
LINE
  8
0
 10
269.62
 20
263.015
 11
268.548
 21
262.787
  0
LINE
  8
0
 10
268.548
 20
262.787
 11
267.452
 21
262.787
  0
LINE
  8
0
 10
-0.547867
 20
128.787
 11
-1.61969
 21
129.015
  0
LINE
  8
0
 10
-1.61969
 20
129.015
 11
-2.62071
 21
129.461
  0
LINE
  8
0
 10
-2.62071
 20
129.461
 11
-3.5072
 21
130.105
  0
LINE
  8
0
 10
-3.5072
 20
130.105
 11
-4.24042
 21
130.919
  0
LINE
  8
0
 10
-4.24042
 20
130.919
 11
-4.7883
 21
131.868
  0
LINE
  8
0
 10
-4.7883
 20
131.868
 11
-5.12691
 21
132.91
  0
LINE
  8
0
 10
-5.12691
 20
132.91
 11
-5.24144
 21
134
  0
LINE
  8
0
 10
-5.24144
 20
134
 11
-5.12691
 21
135.09
  0
LINE
  8
0
 10
-5.12691
 20
135.09
 11
-4.7883
 21
136.132
  0
LINE
  8
0
 10
-4.7883
 20
136.132
 11
-4.24042
 21
137.081
  0
LINE
  8
0
 10
-4.24042
 20
137.081
 11
-3.5072
 21
137.895
  0
LINE
  8
0
 10
-3.5072
 20
137.895
 11
-2.62071
 21
138.539
  0
LINE
  8
0
 10
-2.62071
 20
138.539
 11
-1.61969
 21
138.985
  0
LINE
  8
0
 10
-1.61969
 20
138.985
 11
-0.547867
 21
139.213
  0
LINE
  8
0
 10
-0.547867
 20
139.213
 11
0.547867
 21
139.213
  0
LINE
  8
0
 10
0.547867
 20
139.213
 11
1.61969
 21
138.985
  0
LINE
  8
0
 10
1.61969
 20
138.985
 11
2.62071
 21
138.539
  0
LINE
  8
0
 10
2.62071
 20
138.539
 11
3.5072
 21
137.895
  0
LINE
  8
0
 10
3.5072
 20
137.895
 11
4.24042
 21
137.081
  0
LINE
  8
0
 10
4.24042
 20
137.081
 11
4.7883
 21
136.132
  0
LINE
  8
0
 10
4.7883
 20
136.132
 11
5.12691
 21
135.09
  0
LINE
  8
0
 10
5.12691
 20
135.09
 11
5.24144
 21
134
  0
LINE
  8
0
 10
5.24144
 20
134
 11
5.12691
 21
132.91
  0
LINE
  8
0
 10
5.12691
 20
132.91
 11
4.7883
 21
131.868
  0
LINE
  8
0
 10
4.7883
 20
131.868
 11
4.24042
 21
130.919
  0
LINE
  8
0
 10
4.24042
 20
130.919
 11
3.5072
 21
130.105
  0
LINE
  8
0
 10
3.5072
 20
130.105
 11
2.62071
 21
129.461
  0
LINE
  8
0
 10
2.62071
 20
129.461
 11
1.61969
 21
129.015
  0
LINE
  8
0
 10
1.61969
 20
129.015
 11
0.547867
 21
128.787
  0
LINE
  8
0
 10
0.547867
 20
128.787
 11
-0.547867
 21
128.787
  0
LINE
  8
0
 10
267.452
 20
128.787
 11
266.38
 21
129.015
  0
LINE
  8
0
 10
266.38
 20
129.015
 11
265.379
 21
129.461
  0
LINE
  8
0
 10
265.379
 20
129.461
 11
264.493
 21
130.105
  0
LINE
  8
0
 10
264.493
 20
130.105
 11
263.76
 21
130.919
  0
LINE
  8
0
 10
263.76
 20
130.919
 11
263.212
 21
131.868
  0
LINE
  8
0
 10
263.212
 20
131.868
 11
262.873
 21
132.91
  0
LINE
  8
0
 10
262.873
 20
132.91
 11
262.759
 21
134
  0
LINE
  8
0
 10
262.759
 20
134
 11
262.873
 21
135.09
  0
LINE
  8
0
 10
262.873
 20
135.09
 11
263.212
 21
136.132
  0
LINE
  8
0
 10
263.212
 20
136.132
 11
263.76
 21
137.081
  0
LINE
  8
0
 10
263.76
 20
137.081
 11
264.493
 21
137.895
  0
LINE
  8
0
 10
264.493
 20
137.895
 11
265.379
 21
138.539
  0
LINE
  8
0
 10
265.379
 20
138.539
 11
266.38
 21
138.985
  0
LINE
  8
0
 10
266.38
 20
138.985
 11
267.452
 21
139.213
  0
LINE
  8
0
 10
267.452
 20
139.213
 11
268.548
 21
139.213
  0
LINE
  8
0
 10
268.548
 20
139.213
 11
269.62
 21
138.985
  0
LINE
  8
0
 10
269.62
 20
138.985
 11
270.621
 21
138.539
  0
LINE
  8
0
 10
270.621
 20
138.539
 11
271.507
 21
137.895
  0
LINE
  8
0
 10
271.507
 20
137.895
 11
272.24
 21
137.081
  0
LINE
  8
0
 10
272.24
 20
137.081
 11
272.788
 21
136.132
  0
LINE
  8
0
 10
272.788
 20
136.132
 11
273.127
 21
135.09
  0
LINE
  8
0
 10
273.127
 20
135.09
 11
273.241
 21
134
  0
LINE
  8
0
 10
273.241
 20
134
 11
273.127
 21
132.91
  0
LINE
  8
0
 10
273.127
 20
132.91
 11
272.788
 21
131.868
  0
LINE
  8
0
 10
272.788
 20
131.868
 11
272.24
 21
130.919
  0
LINE
  8
0
 10
272.24
 20
130.919
 11
271.507
 21
130.105
  0
LINE
  8
0
 10
271.507
 20
130.105
 11
270.621
 21
129.461
  0
LINE
  8
0
 10
270.621
 20
129.461
 11
269.62
 21
129.015
  0
LINE
  8
0
 10
269.62
 20
129.015
 11
268.548
 21
128.787
  0
LINE
  8
0
 10
268.548
 20
128.787
 11
267.452
 21
128.787
  0
LINE
  8
0
 10
133.744
 20
131.563
 11
133.243
 21
131.67
  0
LINE
  8
0
 10
133.243
 20
131.67
 11
132.775
 21
131.878
  0
LINE
  8
0
 10
132.775
 20
131.878
 11
132.361
 21
132.179
  0
LINE
  8
0
 10
132.361
 20
132.179
 11
132.018
 21
132.56
  0
LINE
  8
0
 10
132.018
 20
132.56
 11
131.762
 21
133.003
  0
LINE
  8
0
 10
131.762
 20
133.003
 11
131.604
 21
133.491
  0
LINE
  8
0
 10
131.604
 20
133.491
 11
131.55
 21
134
  0
LINE
  8
0
 10
131.55
 20
134
 11
131.604
 21
134.509
  0
LINE
  8
0
 10
131.604
 20
134.509
 11
131.762
 21
134.996
  0
LINE
  8
0
 10
131.762
 20
134.996
 11
132.018
 21
135.44
  0
LINE
  8
0
 10
132.018
 20
135.44
 11
132.361
 21
135.821
  0
LINE
  8
0
 10
132.361
 20
135.821
 11
132.775
 21
136.122
  0
LINE
  8
0
 10
132.775
 20
136.122
 11
133.243
 21
136.33
  0
LINE
  8
0
 10
133.243
 20
136.33
 11
133.744
 21
136.437
  0
LINE
  8
0
 10
133.744
 20
136.437
 11
134.256
 21
136.437
  0
LINE
  8
0
 10
134.256
 20
136.437
 11
134.757
 21
136.33
  0
LINE
  8
0
 10
134.757
 20
136.33
 11
135.225
 21
136.122
  0
LINE
  8
0
 10
135.225
 20
136.122
 11
135.639
 21
135.821
  0
LINE
  8
0
 10
135.639
 20
135.821
 11
135.982
 21
135.44
  0
LINE
  8
0
 10
135.982
 20
135.44
 11
136.238
 21
134.996
  0
LINE
  8
0
 10
136.238
 20
134.996
 11
136.396
 21
134.509
  0
LINE
  8
0
 10
136.396
 20
134.509
 11
136.45
 21
134
  0
LINE
  8
0
 10
136.45
 20
134
 11
136.396
 21
133.491
  0
LINE
  8
0
 10
136.396
 20
133.491
 11
136.238
 21
133.003
  0
LINE
  8
0
 10
136.238
 20
133.003
 11
135.982
 21
132.56
  0
LINE
  8
0
 10
135.982
 20
132.56
 11
135.639
 21
132.179
  0
LINE
  8
0
 10
135.639
 20
132.179
 11
135.225
 21
131.878
  0
LINE
  8
0
 10
135.225
 20
131.878
 11
134.757
 21
131.67
  0
LINE
  8
0
 10
134.757
 20
131.67
 11
134.256
 21
131.563
  0
LINE
  8
0
 10
134.256
 20
131.563
 11
133.744
 21
131.563
  0
LINE
  8
0
 10
267.452
 20
-5.21274
 11
266.38
 21
-4.98491
  0
LINE
  8
0
 10
266.38
 20
-4.98491
 11
265.379
 21
-4.53923
  0
LINE
  8
0
 10
265.379
 20
-4.53923
 11
264.493
 21
-3.89516
  0
LINE
  8
0
 10
264.493
 20
-3.89516
 11
263.76
 21
-3.08084
  0
LINE
  8
0
 10
263.76
 20
-3.08084
 11
263.212
 21
-2.13188
  0
LINE
  8
0
 10
263.212
 20
-2.13188
 11
262.873
 21
-1.08975
  0
LINE
  8
0
 10
262.873
 20
-1.08975
 11
262.759
 21
0
  0
LINE
  8
0
 10
262.759
 20
0
 11
262.873
 21
1.08975
  0
LINE
  8
0
 10
262.873
 20
1.08975
 11
263.212
 21
2.13188
  0
LINE
  8
0
 10
263.212
 20
2.13188
 11
263.76
 21
3.08084
  0
LINE
  8
0
 10
263.76
 20
3.08084
 11
264.493
 21
3.89516
  0
LINE
  8
0
 10
264.493
 20
3.89516
 11
265.379
 21
4.53923
  0
LINE
  8
0
 10
265.379
 20
4.53923
 11
266.38
 21
4.98491
  0
LINE
  8
0
 10
266.38
 20
4.98491
 11
267.452
 21
5.21274
  0
LINE
  8
0
 10
267.452
 20
5.21274
 11
268.548
 21
5.21274
  0
LINE
  8
0
 10
268.548
 20
5.21274
 11
269.62
 21
4.98491
  0
LINE
  8
0
 10
269.62
 20
4.98491
 11
270.621
 21
4.53923
  0
LINE
  8
0
 10
270.621
 20
4.53923
 11
271.507
 21
3.89516
  0
LINE
  8
0
 10
271.507
 20
3.89516
 11
272.24
 21
3.08084
  0
LINE
  8
0
 10
272.24
 20
3.08084
 11
272.788
 21
2.13188
  0
LINE
  8
0
 10
272.788
 20
2.13188
 11
273.127
 21
1.08975
  0
LINE
  8
0
 10
273.127
 20
1.08975
 11
273.241
 21
0
  0
LINE
  8
0
 10
273.241
 20
0
 11
273.127
 21
-1.08975
  0
LINE
  8
0
 10
273.127
 20
-1.08975
 11
272.788
 21
-2.13188
  0
LINE
  8
0
 10
272.788
 20
-2.13188
 11
272.24
 21
-3.08084
  0
LINE
  8
0
 10
272.24
 20
-3.08084
 11
271.507
 21
-3.89516
  0
LINE
  8
0
 10
271.507
 20
-3.89516
 11
270.621
 21
-4.53923
  0
LINE
  8
0
 10
270.621
 20
-4.53923
 11
269.62
 21
-4.98491
  0
LINE
  8
0
 10
269.62
 20
-4.98491
 11
268.548
 21
-5.21274
  0
LINE
  8
0
 10
268.548
 20
-5.21274
 11
267.452
 21
-5.21274
  0
LINE
  8
0
 10
133.452
 20
-5.21274
 11
132.38
 21
-4.98491
  0
LINE
  8
0
 10
132.38
 20
-4.98491
 11
131.379
 21
-4.53923
  0
LINE
  8
0
 10
131.379
 20
-4.53923
 11
130.493
 21
-3.89516
  0
LINE
  8
0
 10
130.493
 20
-3.89516
 11
129.76
 21
-3.08084
  0
LINE
  8
0
 10
129.76
 20
-3.08084
 11
129.212
 21
-2.13188
  0
LINE
  8
0
 10
129.212
 20
-2.13188
 11
128.873
 21
-1.08975
  0
LINE
  8
0
 10
128.873
 20
-1.08975
 11
128.759
 21
0
  0
LINE
  8
0
 10
128.759
 20
0
 11
128.873
 21
1.08975
  0
LINE
  8
0
 10
128.873
 20
1.08975
 11
129.212
 21
2.13188
  0
LINE
  8
0
 10
129.212
 20
2.13188
 11
129.76
 21
3.08084
  0
LINE
  8
0
 10
129.76
 20
3.08084
 11
130.493
 21
3.89516
  0
LINE
  8
0
 10
130.493
 20
3.89516
 11
131.379
 21
4.53923
  0
LINE
  8
0
 10
131.379
 20
4.53923
 11
132.38
 21
4.98491
  0
LINE
  8
0
 10
132.38
 20
4.98491
 11
133.452
 21
5.21274
  0
LINE
  8
0
 10
133.452
 20
5.21274
 11
134.548
 21
5.21274
  0
LINE
  8
0
 10
134.548
 20
5.21274
 11
135.62
 21
4.98491
  0
LINE
  8
0
 10
135.62
 20
4.98491
 11
136.621
 21
4.53923
  0
LINE
  8
0
 10
136.621
 20
4.53923
 11
137.507
 21
3.89516
  0
LINE
  8
0
 10
137.507
 20
3.89516
 11
138.24
 21
3.08084
  0
LINE
  8
0
 10
138.24
 20
3.08084
 11
138.788
 21
2.13188
  0
LINE
  8
0
 10
138.788
 20
2.13188
 11
139.127
 21
1.08975
  0
LINE
  8
0
 10
139.127
 20
1.08975
 11
139.241
 21
0
  0
LINE
  8
0
 10
139.241
 20
0
 11
139.127
 21
-1.08975
  0
LINE
  8
0
 10
139.127
 20
-1.08975
 11
138.788
 21
-2.13188
  0
LINE
  8
0
 10
138.788
 20
-2.13188
 11
138.24
 21
-3.08084
  0
LINE
  8
0
 10
138.24
 20
-3.08084
 11
137.507
 21
-3.89516
  0
LINE
  8
0
 10
137.507
 20
-3.89516
 11
136.621
 21
-4.53923
  0
LINE
  8
0
 10
136.621
 20
-4.53923
 11
135.62
 21
-4.98491
  0
LINE
  8
0
 10
135.62
 20
-4.98491
 11
134.548
 21
-5.21274
  0
LINE
  8
0
 10
134.548
 20
-5.21274
 11
133.452
 21
-5.21274
  0
LINE
  8
0
 10
-0.547867
 20
-5.21274
 11
-1.61969
 21
-4.98491
  0
LINE
  8
0
 10
-1.61969
 20
-4.98491
 11
-2.62071
 21
-4.53923
  0
LINE
  8
0
 10
-2.62071
 20
-4.53923
 11
-3.5072
 21
-3.89516
  0
LINE
  8
0
 10
-3.5072
 20
-3.89516
 11
-4.24042
 21
-3.08084
  0
LINE
  8
0
 10
-4.24042
 20
-3.08084
 11
-4.7883
 21
-2.13188
  0
LINE
  8
0
 10
-4.7883
 20
-2.13188
 11
-5.12691
 21
-1.08975
  0
LINE
  8
0
 10
-5.12691
 20
-1.08975
 11
-5.24144
 21
0
  0
LINE
  8
0
 10
-5.24144
 20
0
 11
-5.12691
 21
1.08975
  0
LINE
  8
0
 10
-5.12691
 20
1.08975
 11
-4.7883
 21
2.13188
  0
LINE
  8
0
 10
-4.7883
 20
2.13188
 11
-4.24042
 21
3.08084
  0
LINE
  8
0
 10
-4.24042
 20
3.08084
 11
-3.5072
 21
3.89516
  0
LINE
  8
0
 10
-3.5072
 20
3.89516
 11
-2.62071
 21
4.53923
  0
LINE
  8
0
 10
-2.62071
 20
4.53923
 11
-1.61969
 21
4.98491
  0
LINE
  8
0
 10
-1.61969
 20
4.98491
 11
-0.547867
 21
5.21274
  0
LINE
  8
0
 10
-0.547867
 20
5.21274
 11
0.547867
 21
5.21274
  0
LINE
  8
0
 10
0.547867
 20
5.21274
 11
1.61969
 21
4.98491
  0
LINE
  8
0
 10
1.61969
 20
4.98491
 11
2.62071
 21
4.53923
  0
LINE
  8
0
 10
2.62071
 20
4.53923
 11
3.5072
 21
3.89516
  0
LINE
  8
0
 10
3.5072
 20
3.89516
 11
4.24042
 21
3.08084
  0
LINE
  8
0
 10
4.24042
 20
3.08084
 11
4.7883
 21
2.13188
  0
LINE
  8
0
 10
4.7883
 20
2.13188
 11
5.12691
 21
1.08975
  0
LINE
  8
0
 10
5.12691
 20
1.08975
 11
5.24144
 21
0
  0
LINE
  8
0
 10
5.24144
 20
0
 11
5.12691
 21
-1.08975
  0
LINE
  8
0
 10
5.12691
 20
-1.08975
 11
4.7883
 21
-2.13188
  0
LINE
  8
0
 10
4.7883
 20
-2.13188
 11
4.24042
 21
-3.08084
  0
LINE
  8
0
 10
4.24042
 20
-3.08084
 11
3.5072
 21
-3.89516
  0
LINE
  8
0
 10
3.5072
 20
-3.89516
 11
2.62071
 21
-4.53923
  0
LINE
  8
0
 10
2.62071
 20
-4.53923
 11
1.61969
 21
-4.98491
  0
LINE
  8
0
 10
1.61969
 20
-4.98491
 11
0.547867
 21
-5.21274
  0
LINE
  8
0
 10
0.547867
 20
-5.21274
 11
-0.547867
 21
-5.21274
  0
ENDSEC
  0
SECTION
  2
OBJECTS
  0
DICTIONARY
  0
ENDSEC
  0
EOF
